<svg data-v-423bf9ae="" xmlns="http://www.w3.org/2000/svg" viewBox="0 0 678 103" class="iconLeft"><!----><!----><!----><g data-v-423bf9ae="" id="6fb1ee74-0d59-4346-aff7-6fa10aede096" fill="black" transform="matrix(5.102040717026833,0,0,5.102040717026833,118.44550289414104,11.28322982788086)"><path d="M1.02 13.43L0.81 10.29L1.33 10.29L1.33 10.29Q1.43 10.92 1.70 11.42L1.70 11.42L1.70 11.42Q1.97 11.93 2.39 12.28L2.39 12.28L2.39 12.28Q2.80 12.63 3.34 12.82L3.34 12.82L3.34 12.82Q3.88 13.01 4.51 13.01L4.51 13.01L4.51 13.01Q5.54 13.01 6.15 12.52L6.15 12.52L6.15 12.52Q6.75 12.03 6.75 11.19L6.75 11.19L6.75 11.19Q6.75 10.84 6.63 10.54L6.63 10.54L6.63 10.54Q6.51 10.25 6.23 9.97L6.23 9.97L6.23 9.97Q5.95 9.70 5.48 9.44L5.48 9.44L5.48 9.44Q5.01 9.17 4.30 8.86L4.30 8.86L4.30 8.86Q3.43 8.48 2.84 8.13L2.84 8.13L2.84 8.13Q2.25 7.78 1.90 7.41L1.90 7.41L1.90 7.41Q1.55 7.03 1.41 6.60L1.41 6.60L1.41 6.60Q1.26 6.17 1.26 5.63L1.26 5.63L1.26 5.63Q1.26 4.98 1.49 4.44L1.49 4.44L1.49 4.44Q1.72 3.89 2.14 3.49L2.14 3.49L2.14 3.49Q2.56 3.09 3.14 2.88L3.14 2.88L3.14 2.88Q3.71 2.66 4.40 2.66L4.40 2.66L4.40 2.66Q5.01 2.66 5.54 2.86L5.54 2.86L5.54 2.86Q6.08 3.05 6.62 3.49L6.62 3.49L6.99 2.86L7.31 2.86L7.46 5.64L6.94 5.64L6.94 5.64Q6.61 4.49 5.97 3.93L5.97 3.93L5.97 3.93Q5.33 3.37 4.44 3.37L4.44 3.37L4.44 3.37Q3.58 3.37 3.08 3.79L3.08 3.79L3.08 3.79Q2.58 4.21 2.58 4.93L2.58 4.93L2.58 4.93Q2.58 5.26 2.69 5.54L2.69 5.54L2.69 5.54Q2.80 5.81 3.05 6.05L3.05 6.05L3.05 6.05Q3.30 6.30 3.71 6.54L3.71 6.54L3.71 6.54Q4.12 6.79 4.72 7.06L4.72 7.06L4.72 7.06Q5.75 7.52 6.44 7.92L6.44 7.92L6.44 7.92Q7.13 8.32 7.53 8.71L7.53 8.71L7.53 8.71Q7.94 9.11 8.11 9.55L8.11 9.55L8.11 9.55Q8.27 10.00 8.27 10.54L8.27 10.54L8.27 10.54Q8.27 11.24 7.99 11.83L7.99 11.83L7.99 11.83Q7.71 12.42 7.21 12.84L7.21 12.84L7.21 12.84Q6.71 13.26 6.01 13.49L6.01 13.49L6.01 13.49Q5.31 13.72 4.47 13.72L4.47 13.72L4.47 13.72Q3.67 13.72 3.03 13.50L3.03 13.50L3.03 13.50Q2.39 13.27 1.74 12.74L1.74 12.74L1.34 13.43L1.02 13.43ZM11.94 9.56L11.94 11.35L11.94 11.35Q11.94 11.93 11.97 12.26L11.97 12.26L11.97 12.26Q12.00 12.60 12.12 12.78L12.12 12.78L12.12 12.78Q12.24 12.95 12.46 13.01L12.46 13.01L12.46 13.01Q12.68 13.06 13.09 13.09L13.09 13.09L13.09 13.58L9.37 13.58L9.37 13.09L9.37 13.09Q9.77 13.06 10.01 13.01L10.01 13.01L10.01 13.01Q10.25 12.95 10.37 12.78L10.37 12.78L10.37 12.78Q10.50 12.61 10.54 12.30L10.54 12.30L10.54 12.30Q10.57 11.98 10.57 11.45L10.57 11.45L10.57 5.59L10.57 5.59Q10.57 4.76 10.55 4.27L10.55 4.27L10.55 4.27Q10.53 3.78 10.47 3.53L10.47 3.53L10.47 3.53Q10.44 3.36 10.38 3.25L10.38 3.25L10.38 3.25Q10.32 3.15 10.19 3.09L10.19 3.09L10.19 3.09Q10.07 3.02 9.86 3.00L9.86 3.00L9.86 3.00Q9.65 2.97 9.34 2.97L9.34 2.97L9.34 2.49L11.91 1.96L11.91 7.29L11.97 7.29L11.97 7.29Q12.18 7.01 12.49 6.78L12.49 6.78L12.49 6.78Q12.81 6.55 13.17 6.38L13.17 6.38L13.17 6.38Q13.54 6.22 13.94 6.12L13.94 6.12L13.94 6.12Q14.34 6.02 14.71 6.02L14.71 6.02L14.71 6.02Q15.36 6.02 15.90 6.24L15.90 6.24L15.90 6.24Q16.44 6.47 16.73 6.85L16.73 6.85L16.73 6.85Q16.97 7.17 17.08 7.69L17.08 7.69L17.08 7.69Q17.19 8.22 17.19 9.11L17.19 9.11L17.19 11.35L17.19 11.35Q17.19 11.93 17.22 12.26L17.22 12.26L17.22 12.26Q17.25 12.59 17.37 12.77L17.37 12.77L17.37 12.77Q17.49 12.95 17.71 13.01L17.71 13.01L17.71 13.01Q17.93 13.06 18.34 13.09L18.34 13.09L18.34 13.58L14.63 13.58L14.63 13.09L14.63 13.09Q15.02 13.08 15.26 13.01L15.26 13.01L15.26 13.01Q15.50 12.95 15.62 12.78L15.62 12.78L15.62 12.78Q15.74 12.61 15.77 12.30L15.77 12.30L15.77 12.30Q15.81 11.98 15.81 11.45L15.81 11.45L15.81 9.69L15.81 9.69Q15.81 8.12 15.44 7.46L15.44 7.46L15.44 7.46Q15.08 6.79 14.22 6.79L14.22 6.79L14.22 6.79Q13.57 6.79 13.03 7.13L13.03 7.13L13.03 7.13Q12.49 7.46 12.18 8.05L12.18 8.05L12.18 8.05Q12.11 8.20 12.06 8.34L12.06 8.34L12.06 8.34Q12.01 8.47 11.98 8.64L11.98 8.64L11.98 8.64Q11.96 8.81 11.95 9.02L11.95 9.02L11.95 9.02Q11.94 9.24 11.94 9.56L11.94 9.56ZM23.55 10.54L23.55 9.44L23.55 9.44Q22.75 9.74 22.20 10.04L22.20 10.04L22.20 10.04Q21.64 10.33 21.31 10.63L21.31 10.63L21.31 10.63Q20.97 10.92 20.82 11.21L20.82 11.21L20.82 11.21Q20.68 11.51 20.68 11.82L20.68 11.82L20.68 11.82Q20.68 12.28 20.99 12.57L20.99 12.57L20.99 12.57Q21.29 12.87 21.80 12.87L21.80 12.87L21.80 12.87Q22.16 12.87 22.48 12.68L22.48 12.68L22.48 12.68Q22.79 12.50 23.03 12.19L23.03 12.19L23.03 12.19Q23.27 11.87 23.41 11.45L23.41 11.45L23.41 11.45Q23.55 11.02 23.55 10.54L23.55 10.54ZM21.53 9.72L23.55 8.83L23.55 8.26L23.55 8.26Q23.55 6.55 22.09 6.55L22.09 6.55L22.09 6.55Q21.85 6.55 21.69 6.59L21.69 6.59L21.69 6.59Q21.52 6.64 21.41 6.73L21.41 6.73L21.41 6.73Q21.29 6.83 21.20 7.01L21.20 7.01L21.20 7.01Q21.11 7.20 21.03 7.46L21.03 7.46L21.03 7.46Q20.87 7.87 20.73 8.00L20.73 8.00L20.73 8.00Q20.58 8.13 20.30 8.13L20.30 8.13L20.30 8.13Q19.60 8.13 19.60 7.43L19.60 7.43L19.60 7.43Q19.60 6.76 20.31 6.39L20.31 6.39L20.31 6.39Q21.03 6.02 22.34 6.02L22.34 6.02L22.34 6.02Q23.74 6.02 24.33 6.52L24.33 6.52L24.33 6.52Q24.92 7.01 24.92 8.20L24.92 8.20L24.92 11.34L24.92 11.34Q24.92 12.94 25.55 12.94L25.55 12.94L25.55 12.94Q25.75 12.94 25.93 12.89L25.93 12.89L25.93 12.89Q26.11 12.84 26.24 12.63L26.24 12.63L26.43 12.96L26.43 12.96Q26.26 13.29 25.82 13.50L25.82 13.50L25.82 13.50Q25.37 13.72 24.88 13.72L24.88 13.72L24.88 13.72Q24.26 13.72 23.96 13.33L23.96 13.33L23.96 13.33Q23.66 12.94 23.66 12.22L23.66 12.22L23.59 12.22L23.59 12.22Q23.23 12.91 22.58 13.31L22.58 13.31L22.58 13.31Q21.94 13.71 21.15 13.71L21.15 13.71L21.15 13.71Q20.27 13.71 19.77 13.26L19.77 13.26L19.77 13.26Q19.26 12.81 19.26 12.05L19.26 12.05L19.26 12.05Q19.26 11.72 19.38 11.41L19.38 11.41L19.38 11.41Q19.50 11.10 19.77 10.82L19.77 10.82L19.77 10.82Q20.03 10.54 20.47 10.27L20.47 10.27L20.47 10.27Q20.90 10.00 21.53 9.72L21.53 9.72ZM29.33 9.56L29.33 11.35L29.33 11.35Q29.33 11.93 29.36 12.26L29.36 12.26L29.36 12.26Q29.39 12.60 29.50 12.78L29.50 12.78L29.50 12.78Q29.62 12.95 29.85 13.01L29.85 13.01L29.85 13.01Q30.07 13.06 30.48 13.09L30.48 13.09L30.48 13.58L26.75 13.58L26.75 13.09L26.75 13.09Q27.16 13.06 27.40 13.01L27.40 13.01L27.40 13.01Q27.64 12.95 27.76 12.78L27.76 12.78L27.76 12.78Q27.89 12.61 27.92 12.30L27.92 12.30L27.92 12.30Q27.96 11.98 27.96 11.45L27.96 11.45L27.96 5.59L27.96 5.59Q27.96 4.76 27.94 4.27L27.94 4.27L27.94 4.27Q27.92 3.78 27.86 3.53L27.86 3.53L27.86 3.53Q27.83 3.36 27.77 3.25L27.77 3.25L27.77 3.25Q27.71 3.15 27.58 3.09L27.58 3.09L27.58 3.09Q27.45 3.02 27.24 3.00L27.24 3.00L27.24 3.00Q27.03 2.97 26.73 2.97L26.73 2.97L26.73 2.49L29.30 1.96L29.30 7.29L29.36 7.29L29.36 7.29Q29.57 7.01 29.88 6.78L29.88 6.78L29.88 6.78Q30.20 6.55 30.56 6.38L30.56 6.38L30.56 6.38Q30.93 6.22 31.32 6.12L31.32 6.12L31.32 6.12Q31.72 6.02 32.10 6.02L32.10 6.02L32.10 6.02Q32.75 6.02 33.28 6.24L33.28 6.24L33.28 6.24Q33.82 6.47 34.12 6.85L34.12 6.85L34.12 6.85Q34.36 7.17 34.47 7.69L34.47 7.69L34.47 7.69Q34.58 8.22 34.58 9.11L34.58 9.11L34.58 11.35L34.58 11.35Q34.58 11.93 34.61 12.26L34.61 12.26L34.61 12.26Q34.64 12.59 34.75 12.77L34.75 12.77L34.75 12.77Q34.87 12.95 35.10 13.01L35.10 13.01L35.10 13.01Q35.32 13.06 35.73 13.09L35.73 13.09L35.73 13.58L32.02 13.58L32.02 13.09L32.02 13.09Q32.41 13.08 32.65 13.01L32.65 13.01L32.65 13.01Q32.89 12.95 33.00 12.78L33.00 12.78L33.00 12.78Q33.12 12.61 33.16 12.30L33.16 12.30L33.16 12.30Q33.19 11.98 33.19 11.45L33.19 11.45L33.19 9.69L33.19 9.69Q33.19 8.12 32.83 7.46L32.83 7.46L32.83 7.46Q32.47 6.79 31.61 6.79L31.61 6.79L31.61 6.79Q30.95 6.79 30.41 7.13L30.41 7.13L30.41 7.13Q29.88 7.46 29.57 8.05L29.57 8.05L29.57 8.05Q29.50 8.20 29.45 8.34L29.45 8.34L29.45 8.34Q29.40 8.47 29.37 8.64L29.37 8.64L29.37 8.64Q29.34 8.81 29.34 9.02L29.34 9.02L29.34 9.02Q29.33 9.24 29.33 9.56L29.33 9.56ZM42.92 11.89L43.36 12.28L43.36 12.28Q42.17 13.72 40.40 13.72L40.40 13.72L40.40 13.72Q39.58 13.72 38.91 13.45L38.91 13.45L38.91 13.45Q38.23 13.17 37.75 12.68L37.75 12.68L37.75 12.68Q37.27 12.18 37.00 11.49L37.00 11.49L37.00 11.49Q36.74 10.79 36.74 9.95L36.74 9.95L36.74 9.95Q36.74 9.10 37.02 8.37L37.02 8.37L37.02 8.37Q37.30 7.64 37.81 7.13L37.81 7.13L37.81 7.13Q38.32 6.61 39.02 6.31L39.02 6.31L39.02 6.31Q39.73 6.02 40.57 6.02L40.57 6.02L40.57 6.02Q41.93 6.02 42.67 6.75L42.67 6.75L42.67 6.75Q43.41 7.49 43.41 8.86L43.41 8.86L43.41 8.86Q43.41 9.06 43.34 9.10L43.34 9.10L43.34 9.10Q43.26 9.14 42.98 9.14L42.98 9.14L38.37 9.14L38.37 9.14Q38.35 9.25 38.33 9.41L38.33 9.41L38.33 9.41Q38.32 9.58 38.32 9.77L38.32 9.77L38.32 9.77Q38.32 10.50 38.49 11.10L38.49 11.10L38.49 11.10Q38.67 11.69 39.00 12.11L39.00 12.11L39.00 12.11Q39.33 12.53 39.78 12.76L39.78 12.76L39.78 12.76Q40.24 12.99 40.80 12.99L40.80 12.99L40.80 12.99Q41.38 12.99 41.89 12.73L41.89 12.73L41.89 12.73Q42.39 12.47 42.92 11.89L42.92 11.89ZM38.47 8.50L41.05 8.50L41.05 8.50Q41.33 8.50 41.50 8.48L41.50 8.48L41.50 8.48Q41.66 8.47 41.75 8.43L41.75 8.43L41.75 8.43Q41.83 8.39 41.86 8.31L41.86 8.31L41.86 8.31Q41.89 8.23 41.89 8.11L41.89 8.11L41.89 8.11Q41.89 7.46 41.47 7.08L41.47 7.08L41.47 7.08Q41.06 6.69 40.35 6.69L40.35 6.69L40.35 6.69Q38.84 6.69 38.47 8.50L38.47 8.50ZM50.85 13.72L50.85 12.40L50.79 12.40L50.79 12.40Q50.29 13.12 49.72 13.42L49.72 13.42L49.72 13.42Q49.15 13.72 48.38 13.72L48.38 13.72L48.38 13.72Q47.59 13.72 46.92 13.43L46.92 13.43L46.92 13.43Q46.26 13.15 45.77 12.63L45.77 12.63L45.77 12.63Q45.29 12.12 45.02 11.41L45.02 11.41L45.02 11.41Q44.74 10.70 44.74 9.86L44.74 9.86L44.74 9.86Q44.74 9.03 45.02 8.32L45.02 8.32L45.02 8.32Q45.29 7.62 45.77 7.10L45.77 7.10L45.77 7.10Q46.26 6.59 46.93 6.31L46.93 6.31L46.93 6.31Q47.60 6.02 48.38 6.02L48.38 6.02L48.38 6.02Q49.06 6.02 49.58 6.24L49.58 6.24L49.58 6.24Q50.11 6.47 50.60 6.96L50.60 6.96L50.60 5.53L50.60 5.53Q50.60 4.73 50.57 4.20L50.57 4.20L50.57 4.20Q50.55 3.67 50.51 3.47L50.51 3.47L50.51 3.47Q50.44 3.16 50.12 3.04L50.12 3.04L50.12 3.04Q49.80 2.91 49.07 2.91L49.07 2.91L49.07 2.49L51.94 1.96L51.94 10.04L51.94 10.04Q51.94 11.00 51.95 11.63L51.95 11.63L51.95 11.63Q51.97 12.25 52.04 12.52L52.04 12.52L52.04 12.52Q52.08 12.68 52.14 12.80L52.14 12.80L52.14 12.80Q52.21 12.91 52.32 12.97L52.32 12.97L52.32 12.97Q52.44 13.03 52.65 13.06L52.65 13.06L52.65 13.06Q52.85 13.09 53.17 13.09L53.17 13.09L53.17 13.57L50.85 13.72ZM50.57 10.23L50.57 9.31L50.57 9.31Q50.57 8.58 50.49 8.20L50.49 8.20L50.49 8.20Q50.41 7.83 50.19 7.55L50.19 7.55L50.19 7.55Q49.87 7.13 49.37 6.91L49.37 6.91L49.37 6.91Q48.87 6.69 48.38 6.69L48.38 6.69L48.38 6.69Q47.38 6.69 46.85 7.53L46.85 7.53L46.85 7.53Q46.33 8.36 46.33 9.79L46.33 9.79L46.33 9.79Q46.33 10.53 46.46 11.13L46.46 11.13L46.46 11.13Q46.59 11.73 46.85 12.16L46.85 12.16L46.85 12.16Q47.11 12.59 47.49 12.82L47.49 12.82L47.49 12.82Q47.88 13.05 48.38 13.05L48.38 13.05L48.38 13.05Q48.64 13.05 48.89 12.99L48.89 12.99L48.89 12.99Q49.15 12.94 49.40 12.82L49.40 12.82L49.40 12.82Q49.64 12.70 49.85 12.54L49.85 12.54L49.85 12.54Q50.06 12.38 50.20 12.17L50.20 12.17L50.20 12.17Q50.40 11.86 50.48 11.42L50.48 11.42L50.48 11.42Q50.57 10.99 50.57 10.23L50.57 10.23ZM64.39 11.19L63.81 9.67L60.07 9.67L60.07 9.67Q59.84 10.25 59.67 10.69L59.67 10.69L59.67 10.69Q59.50 11.13 59.39 11.45L59.39 11.45L59.39 11.45Q59.29 11.77 59.25 12.00L59.25 12.00L59.25 12.00Q59.21 12.22 59.21 12.36L59.21 12.36L59.21 12.36Q59.21 12.75 59.46 12.90L59.46 12.90L59.46 12.90Q59.71 13.05 60.30 13.05L60.30 13.05L60.30 13.58L56.90 13.58L56.90 13.05L56.90 13.05Q57.22 13.01 57.45 12.94L57.45 12.94L57.45 12.94Q57.68 12.87 57.85 12.74L57.85 12.74L57.85 12.74Q58.03 12.61 58.16 12.41L58.16 12.41L58.16 12.41Q58.30 12.21 58.42 11.91L58.42 11.91L62.06 2.80L62.66 2.80L65.84 10.70L65.84 10.70Q66.16 11.48 66.40 11.95L66.40 11.95L66.40 11.95Q66.64 12.42 66.86 12.66L66.86 12.66L66.86 12.66Q67.09 12.89 67.35 12.96L67.35 12.96L67.35 12.96Q67.61 13.03 67.97 13.03L67.97 13.03L67.97 13.58L63.41 13.58L63.41 13.03L63.41 13.03Q64.15 13.03 64.43 12.89L64.43 12.89L64.43 12.89Q64.71 12.75 64.71 12.43L64.71 12.43L64.71 12.43Q64.71 12.29 64.69 12.17L64.69 12.17L64.69 12.17Q64.68 12.05 64.64 11.91L64.64 11.91L64.64 11.91Q64.61 11.77 64.55 11.60L64.55 11.60L64.55 11.60Q64.48 11.42 64.39 11.19L64.39 11.19ZM61.99 4.84L60.35 8.97L63.55 8.97L61.99 4.84ZM70.70 9.56L70.70 11.35L70.70 11.35Q70.70 11.93 70.73 12.26L70.73 12.26L70.73 12.26Q70.76 12.60 70.88 12.78L70.88 12.78L70.88 12.78Q70.99 12.95 71.22 13.01L71.22 13.01L71.22 13.01Q71.44 13.06 71.85 13.09L71.85 13.09L71.85 13.58L68.12 13.58L68.12 13.09L68.12 13.09Q68.53 13.06 68.77 13.01L68.77 13.01L68.77 13.01Q69.01 12.95 69.13 12.78L69.13 12.78L69.13 12.78Q69.26 12.61 69.29 12.30L69.29 12.30L69.29 12.30Q69.33 11.98 69.33 11.45L69.33 11.45L69.33 5.59L69.33 5.59Q69.33 4.76 69.31 4.27L69.31 4.27L69.31 4.27Q69.29 3.78 69.23 3.53L69.23 3.53L69.23 3.53Q69.20 3.36 69.14 3.25L69.14 3.25L69.14 3.25Q69.08 3.15 68.95 3.09L68.95 3.09L68.95 3.09Q68.82 3.02 68.61 3.00L68.61 3.00L68.61 3.00Q68.40 2.97 68.10 2.97L68.10 2.97L68.10 2.49L70.67 1.96L70.67 7.29L70.73 7.29L70.73 7.29Q70.94 7.01 71.25 6.78L71.25 6.78L71.25 6.78Q71.57 6.55 71.93 6.38L71.93 6.38L71.93 6.38Q72.30 6.22 72.69 6.12L72.69 6.12L72.69 6.12Q73.09 6.02 73.47 6.02L73.47 6.02L73.47 6.02Q74.12 6.02 74.66 6.24L74.66 6.24L74.66 6.24Q75.19 6.47 75.49 6.85L75.49 6.85L75.49 6.85Q75.73 7.17 75.84 7.69L75.84 7.69L75.84 7.69Q75.95 8.22 75.95 9.11L75.95 9.11L75.95 11.35L75.95 11.35Q75.95 11.93 75.98 12.26L75.98 12.26L75.98 12.26Q76.01 12.59 76.13 12.77L76.13 12.77L76.13 12.77Q76.24 12.95 76.47 13.01L76.47 13.01L76.47 13.01Q76.69 13.06 77.10 13.09L77.10 13.09L77.10 13.58L73.39 13.58L73.39 13.09L73.39 13.09Q73.78 13.08 74.02 13.01L74.02 13.01L74.02 13.01Q74.26 12.95 74.38 12.78L74.38 12.78L74.38 12.78Q74.49 12.61 74.53 12.30L74.53 12.30L74.53 12.30Q74.56 11.98 74.56 11.45L74.56 11.45L74.56 9.69L74.56 9.69Q74.56 8.12 74.20 7.46L74.20 7.46L74.20 7.46Q73.84 6.79 72.98 6.79L72.98 6.79L72.98 6.79Q72.32 6.79 71.78 7.13L71.78 7.13L71.78 7.13Q71.25 7.46 70.94 8.05L70.94 8.05L70.94 8.05Q70.87 8.20 70.82 8.34L70.82 8.34L70.82 8.34Q70.77 8.47 70.74 8.64L70.74 8.64L70.74 8.64Q70.71 8.81 70.71 9.02L70.71 9.02L70.71 9.02Q70.70 9.24 70.70 9.56L70.70 9.56ZM80.51 9.56L80.51 11.34L80.51 11.34Q80.51 11.93 80.54 12.26L80.54 12.26L80.54 12.26Q80.57 12.60 80.69 12.78L80.69 12.78L80.69 12.78Q80.81 12.95 81.03 13.01L81.03 13.01L81.03 13.01Q81.26 13.06 81.66 13.09L81.66 13.09L81.66 13.58L77.94 13.58L77.94 13.09L77.94 13.09Q78.34 13.06 78.58 13.01L78.58 13.01L78.58 13.01Q78.82 12.95 78.95 12.78L78.95 12.78L78.95 12.78Q79.07 12.61 79.11 12.30L79.11 12.30L79.11 12.30Q79.14 11.98 79.14 11.45L79.14 11.45L79.14 9.66L79.14 9.66Q79.14 8.86 79.12 8.33L79.12 8.33L79.12 8.33Q79.10 7.80 79.04 7.60L79.04 7.60L79.04 7.60Q79.00 7.42 78.95 7.31L78.95 7.31L78.95 7.31Q78.89 7.21 78.76 7.15L78.76 7.15L78.76 7.15Q78.64 7.08 78.44 7.06L78.44 7.06L78.44 7.06Q78.23 7.04 77.91 7.04L77.91 7.04L77.91 6.55L80.19 6.02L80.37 7.42L80.44 7.42L80.44 7.42Q81.07 6.71 81.77 6.36L81.77 6.36L81.77 6.36Q82.46 6.02 83.30 6.02L83.30 6.02L83.30 6.02Q84.18 6.02 84.78 6.38L84.78 6.38L84.78 6.38Q85.39 6.73 85.62 7.41L85.62 7.41L85.68 7.41L85.68 7.41Q86.20 6.75 86.94 6.38L86.94 6.38L86.94 6.38Q87.68 6.02 88.52 6.02L88.52 6.02L88.52 6.02Q89.18 6.02 89.72 6.24L89.72 6.24L89.72 6.24Q90.26 6.45 90.54 6.83L90.54 6.83L90.54 6.83Q90.79 7.15 90.89 7.68L90.89 7.68L90.89 7.68Q91 8.20 91 9.11L91 9.11L91 11.34L91 11.34Q91 11.91 91.03 12.25L91.03 12.25L91.03 12.25Q91.07 12.59 91.18 12.77L91.18 12.77L91.18 12.77Q91.29 12.95 91.53 13.01L91.53 13.01L91.53 13.01Q91.76 13.06 92.16 13.09L92.16 13.09L92.16 13.58L88.44 13.58L88.44 13.09L88.44 13.09Q88.83 13.08 89.07 13.01L89.07 13.01L89.07 13.01Q89.31 12.95 89.43 12.78L89.43 12.78L89.43 12.78Q89.56 12.60 89.59 12.29L89.59 12.29L89.59 12.29Q89.63 11.98 89.63 11.45L89.63 11.45L89.63 9.69L89.63 9.69Q89.63 8.89 89.54 8.34L89.54 8.34L89.54 8.34Q89.46 7.78 89.26 7.44L89.26 7.44L89.26 7.44Q89.07 7.10 88.75 6.94L88.75 6.94L88.75 6.94Q88.44 6.79 87.99 6.79L87.99 6.79L87.99 6.79Q87.37 6.79 86.84 7.13L86.84 7.13L86.84 7.13Q86.30 7.48 85.99 8.05L85.99 8.05L85.99 8.05Q85.92 8.19 85.87 8.32L85.87 8.32L85.87 8.32Q85.82 8.46 85.79 8.62L85.79 8.62L85.79 8.62Q85.76 8.78 85.76 9.00L85.76 9.00L85.76 9.00Q85.75 9.23 85.75 9.56L85.75 9.56L85.75 11.34L85.75 11.34Q85.75 11.91 85.78 12.25L85.78 12.25L85.78 12.25Q85.81 12.59 85.92 12.77L85.92 12.77L85.92 12.77Q86.04 12.95 86.28 13.01L86.28 13.01L86.28 13.01Q86.52 13.06 86.93 13.09L86.93 13.09L86.93 13.58L83.20 13.58L83.20 13.09L83.20 13.09Q83.59 13.06 83.83 13.01L83.83 13.01L83.83 13.01Q84.07 12.95 84.19 12.78L84.19 12.78L84.19 12.78Q84.31 12.61 84.34 12.30L84.34 12.30L84.34 12.30Q84.38 11.98 84.38 11.45L84.38 11.45L84.38 9.69L84.38 9.69Q84.38 8.88 84.29 8.32L84.29 8.32L84.29 8.32Q84.21 7.77 84.02 7.43L84.02 7.43L84.02 7.43Q83.83 7.08 83.52 6.94L83.52 6.94L83.52 6.94Q83.22 6.79 82.77 6.79L82.77 6.79L82.77 6.79Q82.14 6.79 81.59 7.13L81.59 7.13L81.59 7.13Q81.03 7.48 80.75 8.05L80.75 8.05L80.75 8.05Q80.68 8.19 80.63 8.32L80.63 8.32L80.63 8.32Q80.58 8.46 80.56 8.62L80.56 8.62L80.56 8.62Q80.53 8.78 80.52 9.00L80.52 9.00L80.52 9.00Q80.51 9.23 80.51 9.56L80.51 9.56ZM99.32 11.89L99.75 12.28L99.75 12.28Q98.56 13.72 96.80 13.72L96.80 13.72L96.80 13.72Q95.97 13.72 95.30 13.45L95.30 13.45L95.30 13.45Q94.63 13.17 94.14 12.68L94.14 12.68L94.14 12.68Q93.66 12.18 93.39 11.49L93.39 11.49L93.39 11.49Q93.13 10.79 93.13 9.95L93.13 9.95L93.13 9.95Q93.13 9.10 93.41 8.37L93.41 8.37L93.41 8.37Q93.69 7.64 94.20 7.13L94.20 7.13L94.20 7.13Q94.71 6.61 95.42 6.31L95.42 6.31L95.42 6.31Q96.12 6.02 96.96 6.02L96.96 6.02L96.96 6.02Q98.32 6.02 99.06 6.75L99.06 6.75L99.06 6.75Q99.81 7.49 99.81 8.86L99.81 8.86L99.81 8.86Q99.81 9.06 99.73 9.10L99.73 9.10L99.73 9.10Q99.65 9.14 99.37 9.14L99.37 9.14L94.77 9.14L94.77 9.14Q94.74 9.25 94.72 9.41L94.72 9.41L94.72 9.41Q94.71 9.58 94.71 9.77L94.71 9.77L94.71 9.77Q94.71 10.50 94.89 11.10L94.89 11.10L94.89 11.10Q95.06 11.69 95.39 12.11L95.39 12.11L95.39 12.11Q95.72 12.53 96.17 12.76L96.17 12.76L96.17 12.76Q96.63 12.99 97.19 12.99L97.19 12.99L97.19 12.99Q97.78 12.99 98.28 12.73L98.28 12.73L98.28 12.73Q98.78 12.47 99.32 11.89L99.32 11.89ZM94.86 8.50L97.44 8.50L97.44 8.50Q97.72 8.50 97.89 8.48L97.89 8.48L97.89 8.48Q98.06 8.47 98.14 8.43L98.14 8.43L98.14 8.43Q98.22 8.39 98.25 8.31L98.25 8.31L98.25 8.31Q98.28 8.23 98.28 8.11L98.28 8.11L98.28 8.11Q98.28 7.46 97.87 7.08L97.87 7.08L97.87 7.08Q97.45 6.69 96.74 6.69L96.74 6.69L96.74 6.69Q95.23 6.69 94.86 8.50L94.86 8.50ZM107.24 13.72L107.24 12.40L107.18 12.40L107.18 12.40Q106.68 13.12 106.11 13.42L106.11 13.42L106.11 13.42Q105.55 13.72 104.78 13.72L104.78 13.72L104.78 13.72Q103.98 13.72 103.31 13.43L103.31 13.43L103.31 13.43Q102.65 13.15 102.17 12.63L102.17 12.63L102.17 12.63Q101.68 12.12 101.41 11.41L101.41 11.41L101.41 11.41Q101.14 10.70 101.14 9.86L101.14 9.86L101.14 9.86Q101.14 9.03 101.41 8.32L101.41 8.32L101.41 8.32Q101.68 7.62 102.17 7.10L102.17 7.10L102.17 7.10Q102.65 6.59 103.32 6.31L103.32 6.31L103.32 6.31Q103.99 6.02 104.78 6.02L104.78 6.02L104.78 6.02Q105.45 6.02 105.97 6.24L105.97 6.24L105.97 6.24Q106.50 6.47 106.99 6.96L106.99 6.96L106.99 5.53L106.99 5.53Q106.99 4.73 106.97 4.20L106.97 4.20L106.97 4.20Q106.95 3.67 106.90 3.47L106.90 3.47L106.90 3.47Q106.83 3.16 106.51 3.04L106.51 3.04L106.51 3.04Q106.19 2.91 105.46 2.91L105.46 2.91L105.46 2.49L108.33 1.96L108.33 10.04L108.33 10.04Q108.33 11.00 108.35 11.63L108.35 11.63L108.35 11.63Q108.36 12.25 108.43 12.52L108.43 12.52L108.43 12.52Q108.47 12.68 108.54 12.80L108.54 12.80L108.54 12.80Q108.60 12.91 108.72 12.97L108.72 12.97L108.72 12.97Q108.84 13.03 109.04 13.06L109.04 13.06L109.04 13.06Q109.24 13.09 109.56 13.09L109.56 13.09L109.56 13.57L107.24 13.72ZM106.96 10.23L106.96 9.31L106.96 9.31Q106.96 8.58 106.88 8.20L106.88 8.20L106.88 8.20Q106.81 7.83 106.58 7.55L106.58 7.55L106.58 7.55Q106.26 7.13 105.76 6.91L105.76 6.91L105.76 6.91Q105.27 6.69 104.78 6.69L104.78 6.69L104.78 6.69Q103.77 6.69 103.24 7.53L103.24 7.53L103.24 7.53Q102.72 8.36 102.72 9.79L102.72 9.79L102.72 9.79Q102.72 10.53 102.85 11.13L102.85 11.13L102.85 11.13Q102.98 11.73 103.24 12.16L103.24 12.16L103.24 12.16Q103.50 12.59 103.89 12.82L103.89 12.82L103.89 12.82Q104.27 13.05 104.78 13.05L104.78 13.05L104.78 13.05Q105.03 13.05 105.29 12.99L105.29 12.99L105.29 12.99Q105.55 12.94 105.79 12.82L105.79 12.82L105.79 12.82Q106.04 12.70 106.25 12.54L106.25 12.54L106.25 12.54Q106.46 12.38 106.60 12.17L106.60 12.17L106.60 12.17Q106.79 11.86 106.88 11.42L106.88 11.42L106.88 11.42Q106.96 10.99 106.96 10.23L106.96 10.23Z"></path></g><!----><g data-v-423bf9ae="" id="31fe5415-8f58-4132-b3ca-6b0b548ab42a" transform="matrix(1.0675332811143663,0,0,1.0675332811143663,-1.4020679435014003,-1.4052614246492752)" stroke="none" fill="black"><path d="M79.349 89.378l7.947-7.947-68.321-68.258L4.01 6.083l7.261 15.211 68.078 68.084zM18.306 17.024c-.243.241-.862.378-.862.378l-2.119.002v2.118l-.005-.005c-.034.321-.136.627-.375.863a1.445 1.445 0 0 1-2.04 0l-.042.042-.252-.253-3.495-7.38 1.6-1.6 7.375 3.496.255.255-.04.04c.561.561.561 1.48 0 2.044zm66.527 64.407l-2.742 2.739-65.209-65.214s1.506.611 2.737-.619c.388-.388.618-.859.771-1.351l64.443 64.445zM86.89 96.91l7.939-7.942-5.609-5.618-7.951 7.948 5.621 5.612zm5.478-7.945l-5.479 5.479-3.154-3.147 5.484-5.486 3.149 3.154zM49.779 63.1l-1.651 1.649-4.519-4.519-1.231 1.232 4.519 4.518-1.722 1.722-2.592-2.597-1.233 1.233 2.595 2.596-1.721 1.718-2.594-2.591-1.231 1.229 2.594 2.593-1.72 1.721-4.52-4.518-1.23 1.23 4.519 4.52-1.722 1.723-2.593-2.594-1.231 1.23 2.593 2.593-1.722 1.722-2.592-2.592-1.232 1.23 2.593 2.592-1.721 1.723-4.519-4.52-1.231 1.233 4.518 4.517-1.721 1.723-2.591-2.596-1.235 1.233 2.594 2.593-1.719 1.719-2.592-2.592-1.231 1.231 2.593 2.594-1.722 1.72-4.518-4.518-1.231 1.231 4.518 4.519-2.873 2.873L4.138 82.107l32.323-32.322-1.231-1.231L2.291 81.493l-.618.614 15.782 15.778L51.01 64.329zM81.979 1.807L46.483 37.302l1.231 1.231L81.979 4.269l13.314 13.314-2.879 2.882-4.518-4.519-1.232 1.231 4.52 4.519-1.723 1.719-2.592-2.593-1.23 1.231 2.591 2.595-1.721 1.719-2.593-2.592-1.23 1.231 2.593 2.593-1.72 1.721-4.522-4.518-1.23 1.231 4.52 4.518-1.722 1.722-2.593-2.592-1.233 1.231 2.596 2.592-1.723 1.722-2.591-2.593-1.232 1.231 2.593 2.593-1.722 1.721-4.518-4.518-1.231 1.231 4.518 4.518-1.721 1.722-2.594-2.592-1.23 1.231 2.594 2.592-1.723 1.722-2.593-2.595-1.229 1.231 2.589 2.595-1.716 1.719-4.524-4.518-1.229 1.231 4.52 4.518-1.722 1.721-2.594-2.592-1.233 1.231 2.594 2.592-.631.631 1.233 1.232 34.883-34.882.619-.615z"></path></g><!----></svg>